# xmcd CD database file
#
# Track frame offsets:
#	187
#	28839
#	55657
#	83264
#	109934
#	139674
#	162977
#	192064
#	222434
#	247642
#
# Disc length: 3607 seconds
#
# Revision: 0
# Processed by: cddbd v1.5.2PL0 Copyright (c) Steve Scherf et al.
# Submitted via: CDex 1.70beta1
#
DISCID=790e150a
DTITLE=小曽根真 - Three Wishes
DYEAR=1998
DGENRE=Jazz
TTITLE0=Three Wishes
TTITLE1=53rd st. Blues
TTITLE2=Myst
TTITLE3=Kelly's Other Tune
TTITLE4=Only We Know
TTITLE5=Don't Say "Monk" !
TTITLE6=Stinger Double
TTITLE7=No Siesta
TTITLE8=Embrace
TTITLE9=B. Q. E.
EXTD=YEAR: 1998
EXTT0=
EXTT1=
EXTT2=
EXTT3=
EXTT4=
EXTT5=
EXTT6=
EXTT7=
EXTT8=
EXTT9=
PLAYORDER=
